<svg width="78" height="23" viewBox="0 0 78 23" fill="none" xmlns="http://www.w3.org/2000/svg">
<path d="M10.84 15.732L10.828 18H0.052V0.719999H10.828V2.988H2.872V8.196H9.232V10.392H2.872V15.732H10.84ZM23.9121 18H21.4401C21.2401 18 21.0801 17.948 20.9601 17.844C20.8481 17.74 20.7561 17.624 20.6841 17.496L17.8641 12.972C17.7921 13.244 17.6961 13.48 17.5761 13.68L15.0201 17.496C14.9321 17.624 14.8321 17.74 14.7201 17.844C14.6161 17.948 14.4761 18 14.3001 18H11.9961L16.2321 11.688L12.1641 5.76H14.6361C14.8361 5.76 14.9801 5.792 15.0681 5.856C15.1641 5.912 15.2481 6 15.3201 6.12L18.0921 10.44C18.1641 10.176 18.2761 9.924 18.4281 9.684L20.7681 6.168C20.9281 5.896 21.1321 5.76 21.3801 5.76H23.7441L19.6761 11.58L23.9121 18ZM28.2379 14.928C28.5979 15.392 28.9899 15.72 29.4139 15.912C29.8459 16.096 30.3219 16.188 30.8419 16.188C31.8499 16.188 32.6339 15.82 33.1939 15.084C33.7619 14.348 34.0459 13.252 34.0459 11.796C34.0459 11.044 33.9819 10.404 33.8539 9.876C33.7259 9.34 33.5419 8.904 33.3019 8.568C33.0619 8.232 32.7699 7.988 32.4259 7.836C32.0819 7.684 31.6939 7.608 31.2619 7.608C30.6059 7.608 30.0379 7.752 29.5579 8.04C29.0859 8.32 28.6459 8.724 28.2379 9.252V14.928ZM28.1059 7.536C28.6179 6.936 29.1979 6.452 29.8459 6.084C30.5019 5.716 31.2619 5.532 32.1259 5.532C32.8139 5.532 33.4379 5.672 33.9979 5.952C34.5579 6.224 35.0379 6.624 35.4379 7.152C35.8379 7.68 36.1459 8.336 36.3619 9.12C36.5859 9.896 36.6979 10.788 36.6979 11.796C36.6979 12.7 36.5739 13.544 36.3259 14.328C36.0859 15.104 35.7379 15.78 35.2819 16.356C34.8259 16.924 34.2739 17.372 33.6259 17.7C32.9779 18.02 32.2459 18.18 31.4299 18.18C30.7099 18.18 30.0979 18.064 29.5939 17.832C29.0979 17.6 28.6459 17.28 28.2379 16.872V22.068H25.6579V5.76H27.2179C27.5699 5.76 27.7939 5.924 27.8899 6.252L28.1059 7.536ZM41.8328 0.24V18H39.2528V0.24H41.8328ZM50.3093 5.568C51.2133 5.568 52.0293 5.716 52.7573 6.012C53.4933 6.308 54.1173 6.728 54.6293 7.272C55.1493 7.816 55.5493 8.476 55.8293 9.252C56.1093 10.028 56.2493 10.9 56.2493 11.868C56.2493 12.836 56.1093 13.708 55.8293 14.484C55.5493 15.26 55.1493 15.924 54.6293 16.476C54.1173 17.02 53.4933 17.44 52.7573 17.736C52.0293 18.032 51.2133 18.18 50.3093 18.18C49.3973 18.18 48.5733 18.032 47.8373 17.736C47.1093 17.44 46.4853 17.02 45.9653 16.476C45.4453 15.924 45.0453 15.26 44.7653 14.484C44.4853 13.708 44.3453 12.836 44.3453 11.868C44.3453 10.9 44.4853 10.028 44.7653 9.252C45.0453 8.476 45.4453 7.816 45.9653 7.272C46.4853 6.728 47.1093 6.308 47.8373 6.012C48.5733 5.716 49.3973 5.568 50.3093 5.568ZM50.3093 16.164C51.4133 16.164 52.2333 15.796 52.7693 15.06C53.3133 14.316 53.5853 13.256 53.5853 11.88C53.5853 10.504 53.3133 9.444 52.7693 8.7C52.2333 7.948 51.4133 7.572 50.3093 7.572C49.1893 7.572 48.3573 7.948 47.8133 8.7C47.2693 9.444 46.9973 10.504 46.9973 11.88C46.9973 13.256 47.2693 14.316 47.8133 15.06C48.3573 15.796 49.1893 16.164 50.3093 16.164ZM61.1643 8.028C61.5483 7.252 62.0123 6.644 62.5563 6.204C63.1003 5.756 63.7523 5.532 64.5123 5.532C64.7763 5.532 65.0243 5.564 65.2563 5.628C65.4883 5.684 65.6963 5.772 65.8803 5.892L65.7003 7.836C65.6683 7.972 65.6163 8.068 65.5443 8.124C65.4803 8.172 65.3923 8.196 65.2803 8.196C65.1603 8.196 64.9883 8.176 64.7643 8.136C64.5403 8.088 64.3043 8.064 64.0563 8.064C63.6963 8.064 63.3763 8.116 63.0963 8.22C62.8243 8.324 62.5763 8.476 62.3523 8.676C62.1363 8.876 61.9443 9.12 61.7763 9.408C61.6083 9.696 61.4523 10.024 61.3083 10.392V18H58.7283V5.76H60.2283C60.5003 5.76 60.6883 5.812 60.7923 5.916C60.8963 6.012 60.9683 6.184 61.0083 6.432L61.1643 8.028ZM75.1938 10.5C75.1938 10.068 75.1298 9.668 75.0018 9.3C74.8818 8.924 74.7018 8.6 74.4618 8.328C74.2218 8.048 73.9218 7.832 73.5618 7.68C73.2098 7.52 72.8018 7.44 72.3378 7.44C71.4018 7.44 70.6658 7.708 70.1298 8.244C69.5938 8.78 69.2538 9.532 69.1098 10.5H75.1938ZM69.0378 12.084C69.0698 12.78 69.1778 13.384 69.3618 13.896C69.5458 14.4 69.7898 14.82 70.0938 15.156C70.4058 15.492 70.7738 15.744 71.1978 15.912C71.6298 16.072 72.1098 16.152 72.6378 16.152C73.1418 16.152 73.5778 16.096 73.9458 15.984C74.3138 15.864 74.6338 15.736 74.9058 15.6C75.1778 15.456 75.4098 15.328 75.6018 15.216C75.7938 15.096 75.9698 15.036 76.1298 15.036C76.3378 15.036 76.4978 15.116 76.6098 15.276L77.3418 16.224C77.0378 16.584 76.6938 16.888 76.3098 17.136C75.9258 17.384 75.5178 17.588 75.0858 17.748C74.6538 17.9 74.2098 18.008 73.7538 18.072C73.2978 18.144 72.8538 18.18 72.4218 18.18C71.5738 18.18 70.7858 18.04 70.0578 17.76C69.3378 17.472 68.7098 17.052 68.1738 16.5C67.6458 15.948 67.2298 15.264 66.9258 14.448C66.6298 13.632 66.4818 12.692 66.4818 11.628C66.4818 10.78 66.6138 9.988 66.8778 9.252C67.1498 8.516 67.5338 7.876 68.0298 7.332C68.5338 6.788 69.1418 6.36 69.8538 6.048C70.5738 5.728 71.3858 5.568 72.2898 5.568C73.0418 5.568 73.7378 5.692 74.3778 5.94C75.0178 6.18 75.5698 6.536 76.0338 7.008C76.4978 7.48 76.8578 8.06 77.1138 8.748C77.3778 9.428 77.5098 10.204 77.5098 11.076C77.5098 11.476 77.4658 11.744 77.3778 11.88C77.2898 12.016 77.1298 12.084 76.8978 12.084H69.0378Z" fill="black"/>
</svg>
